<svg width="692" height="703" viewBox="0 0 1147 1147" fill="none" xmlns="http://www.w3.org/2000/svg">
<path d="M792.316 641.75C819.815 669.315 848.822 674.727 883.698 657.985C891.914 653.926 910.861 653.419 918.406 664.58C917.4 670.161 917.232 673.712 916.226 677.094C877.997 809.168 751.572 912.493 613.913 923.654C394.43 941.242 264.987 784.478 234.471 639.89C192.553 441.526 331.721 249.926 534.269 224.898C574.007 219.993 614.416 221.854 653.652 230.309C663.712 232.508 668.239 234.875 665.892 246.882C663.209 259.903 658.682 268.866 647.28 277.49C621.626 297.107 615.925 324.164 626.992 356.464C547.347 342.935 477.931 361.537 420.923 417.851C384.873 453.363 362.908 496.655 358.045 546.88C347.147 658.999 412.707 756.237 518.34 786.676C612.74 814.241 741.344 775.853 792.316 641.75Z" fill="#cd4637"/>
<path d="M638.091 381.1C620.299 404.342 610.06 428.432 615.264 457.442C619.963 482.889 632.888 502.399 653.701 517.667C658.568 521.23 663.436 527.677 663.939 533.275C668.807 589.259 714.294 625.733 770.187 617.421C771.697 617.251 773.208 617.251 774.719 617.421C772.033 679.003 705.062 749.746 630.874 769.935C545.271 793.177 453.963 758.229 405.958 683.923C357.618 609.108 363.829 512.239 421.232 443.022C473.097 380.761 567.595 353.108 638.091 381.1Z" fill="#cd4637"/>
</svg>